<?xml version="1.0"?>
<svg version="1.1" xmlns="http://www.w3.org/2000/svg" width="400px" height="200px" style="border: dashed 2px #aaa"><path fill="#" d="M15.12,101.4l-0.756-3.22s-1.484-0.56-3.584-0.56c-3.78,0-5.88,2.8-5.88,7.98c0,5.04,2.52,7.28,6.02,7.28c2.94,0,5.6-2.24,5.6-2.24l1.12,1.82s-2.8,2.94-7,2.94c-5.6,0-8.96-3.36-8.96-9.66c0-6.44,3.64-10.5,9.38-10.5c3.08,0,6.3,1.4,6.3,1.4l-0.14,4.76l-2.1,0z M26.4208,93.56l0,8.456c0.868-0.728,2.828-2.016,4.9-2.016c3.08,0,4.48,1.96,4.48,5.04l0,7.84l2.1,0.7l0,1.54l-6.72,0l0-1.54l1.82-0.672l0-7.588c0-1.96-0.616-2.94-2.436-2.94c-2.38,0-4.144,2.24-4.144,2.24l0,8.26l1.82,0.7l0,1.54l-7,0l0-1.54l2.38-0.7l0-17.08l-2.38-0.56l0-1.54z M58.1616,113.44l0,1.54l-4.62,0.14l-0.28-1.96c-0.672,0.588-2.884,2.24-5.18,2.24c-3.08,0-4.48-1.932-4.48-5.012l0-7.868l-2.38-0.56l0-1.54l5.18-0.14l0,9.828c0,1.96,0.7,2.912,2.52,2.912c2.38,0,4.06-2.212,4.06-2.212l0-8.288l-2.38-0.56l0-1.54l5.18-0.14l0,12.6z M66.5224,100.28l0.252,2.044c0.7-0.784,2.324-2.324,4.228-2.324c1.4,0,2.52,0.42,2.52,0.42l-0.14,4.06l-1.82,0l-0.42-2.1c-2.1,0-3.444,1.372-4.06,2.184l0,8.316l2.8,0.7l0,1.54l-7.98,0l0-1.54l2.38-0.7l0-10.36l-2.38-0.56l0-1.54z M86.9232,104.9l-0.42-2.38s-1.12-0.28-2.52-0.28c-2.66,0-4.2,1.68-4.2,5.18c0,3.78,1.68,5.74,4.34,5.74s4.34-1.68,4.34-1.68l0.98,1.68s-2.52,2.24-5.6,2.24c-4.62,0-7-2.94-7-7.7c0-4.48,2.8-7.7,7.28-7.7c2.52,0,4.76,1.12,4.76,1.12l-0.14,3.78l-1.82,0z M97.804,93.56l0,8.456c0.868-0.728,2.828-2.016,4.9-2.016c3.08,0,4.48,1.96,4.48,5.04l0,7.84l2.1,0.7l0,1.54l-6.72,0l0-1.54l1.82-0.672l0-7.588c0-1.96-0.616-2.94-2.436-2.94c-2.38,0-4.144,2.24-4.144,2.24l0,8.26l1.82,0.7l0,1.54l-7,0l0-1.54l2.38-0.7l0-17.08l-2.38-0.56l0-1.54z M128.6656,100c4.2,0,6.58,2.94,6.58,7.42c0,4.76-2.8,7.98-7,7.98s-6.72-2.52-6.72-7.56c0-4.76,2.94-7.84,7.14-7.84z M128.5256,102.24c-2.8,0-4.06,1.82-4.06,5.46c0,3.36,1.12,5.46,3.92,5.46s3.92-1.96,3.92-5.6c0-3.08-0.98-5.32-3.78-5.32z M142.0664,100.42l0-1.68c0-3.36,1.82-5.46,5.18-5.46c2.66,0,4.2,0.98,4.2,0.98l0,3.5l-1.96,0l-0.42-2.24s-0.7-0.14-1.68-0.14c-1.96,0-2.52,1.12-2.52,2.8l0,2.24l3.696,0l-0.084,2.1l-3.612,0l0,10.36l2.8,0.7l0,1.54l-7.98,0l0-1.54l2.38-0.7l0-10.36l-2.52,0l0-1.82z M177.968,107.728l0,5.992s-2.968,1.68-7.14,1.68c-5.6,0-8.96-3.36-8.96-9.66c0-6.44,3.64-10.5,9.38-10.5c3.08,0,6.3,1.4,6.3,1.4l-0.14,4.62l-1.82,0l-0.84-3.08s-1.68-0.56-3.78-0.56c-3.78,0-5.88,2.8-5.88,7.98c0,5.04,2.52,7.42,6.16,7.42c1.96,0,3.92-0.7,3.92-0.7l0-4.592l-2.38-0.56l0-1.54l7.28-0.14l0,1.68z M191.3688,100c4.2,0,6.58,2.94,6.58,7.42c0,4.76-2.8,7.98-7,7.98s-6.72-2.52-6.72-7.56c0-4.76,2.94-7.84,7.14-7.84z M191.2288,102.24c-2.8,0-4.06,1.82-4.06,5.46c0,3.36,1.12,5.46,3.92,5.46s3.92-1.96,3.92-5.6c0-3.08-0.98-5.32-3.78-5.32z M217.5096,113.44l0,1.54l-4.76,0.14l-0.224-1.596c-0.812,0.812-2.268,1.876-4.396,1.876c-4.06,0-5.88-2.94-5.88-7.28c0-4.76,2.38-8.12,7.42-8.12c1.036,0,1.932,0.196,2.66,0.448l0-4.648l-2.38-0.56l0-1.54l5.18-0.14l0,19.32z M212.3296,111.06l0-8.26s-0.98-0.56-2.94-0.56c-3.248,0-4.2,2.52-4.2,5.6s0.98,5.32,3.5,5.32c2.38,0,3.64-2.1,3.64-2.1z"/><path fill="#" d=""/></svg>
